<?xml version="1.0" standalone="no"?>
<!DOCTYPE svg PUBLIC "-//W3C//DTD SVG 20010904//EN"
 "http://www.w3.org/TR/2001/REC-SVG-20010904/DTD/svg10.dtd">
<svg version="1.0" xmlns="http://www.w3.org/2000/svg"
 width="176.000000pt" height="176.000000pt" viewBox="0 0 176.000000 176.000000"
 preserveAspectRatio="xMidYMid meet">
<metadata>
Created by potrace 1.14, written by Peter Selinger 2001-2017
</metadata>
<g transform="translate(0.000000,176.000000) scale(0.100000,-0.100000)"
fill="#000000" stroke="none">
<path d="M448 1477 c-176 -66 -229 -304 -97 -436 133 -133 342 -95 429 77 28
57 29 154 2 215 -23 51 -78 108 -130 133 -47 23 -155 28 -204 11z"/>
<path d="M1105 1471 c-50 -23 -100 -72 -128 -125 -30 -58 -30 -174 0 -232 56
-106 127 -149 243 -149 85 1 134 21 186 77 56 59 69 94 69 188 0 62 -5 94 -18
117 -25 47 -84 103 -131 124 -56 25 -167 25 -221 0z"/>
<path d="M442 795 c-207 -93 -225 -369 -32 -479 48 -27 64 -31 130 -31 91 1
138 22 199 91 46 52 63 103 62 182 -1 90 -43 160 -130 218 -35 23 -55 28 -119
31 -54 2 -87 -1 -110 -12z"/>
<path d="M1102 784 c-139 -69 -189 -230 -115 -366 80 -147 273 -182 402 -71
55 46 83 103 89 180 16 202 -196 347 -376 257z"/>
</g>
</svg>
